# xmcd
# 
# Track frame offsets:
#     150
#     39692
#     80556
#     114633
#     140592
#     176643
#     209457
#     225984
#     268635
#     283986
#     310746
#     335533
# 
# Disc length: 4701
# 
# Revision: 1
# Processed by: cddbd v1.5.2PL0 Copyright (c) Steve Scherf et al.
# Submitted via: fre:ac v1.0.31
# 
DISCID=b3125b0c
DTITLE=Ronnie Earl And The Broadcasters - Living In The Light
DYEAR=2009
DGENRE=Blues
TTITLE0=Love Love Love
TTITLE1=S.O.S
TTITLE2=Take A Little Walk With Me
TTITLE3=River Charles Blues
TTITLE4=What Can I Do For You
TTITLE5=Recovery Blues
TTITLE6=Blues For Fathead
TTITLE7=Child Of A Survivor
TTITLE8=Blues For The South Side
TTITLE9=Ain't Nobody's Business
TTITLE10=Donna Lee
TTITLE11=Pastorale
EXTD=
EXTT0=
EXTT1=
EXTT2=
EXTT3=
EXTT4=
EXTT5=
EXTT6=
EXTT7=
EXTT8=
EXTT9=
EXTT10=
EXTT11=
PLAYORDER=
